<svg width="2262" height="2290" viewBox="0 0 2262 2290" fill="none" xmlns="http://www.w3.org/2000/svg">
<path fill-rule="evenodd" clip-rule="evenodd" d="M0 0.390625H2262V2289.6H0V0.390625ZM432 436.947H1829.69V593.055H432V436.947ZM565.366 658.353C541.118 658.353 521.461 678.01 521.461 702.258C521.461 726.507 541.118 746.164 565.366 746.164H1696.34C1720.59 746.164 1740.24 726.507 1740.24 702.258C1740.24 678.01 1720.59 658.353 1696.34 658.353H565.366ZM571.755 855.322C571.755 831.074 591.412 811.417 615.661 811.417H1668.36C1692.61 811.417 1712.27 831.074 1712.27 855.322C1712.27 879.571 1692.61 899.228 1668.36 899.228H615.661C591.412 899.228 571.755 879.571 571.755 855.322ZM655.628 964.537H1616.54V2056.72H1499.87V1171.11C1499.87 1127.64 1464.63 1092.4 1421.16 1092.4C1377.69 1092.4 1342.45 1127.64 1342.45 1171.11V2056.72H1220.64V1170.23C1220.64 1126.76 1185.4 1091.52 1141.92 1091.52C1098.45 1091.52 1063.21 1126.76 1063.21 1170.23V2056.72H941.402V1171.11C941.402 1127.64 906.161 1092.4 862.69 1092.4C819.218 1092.4 783.977 1127.64 783.977 1171.11V2056.72H655.628V964.537Z" fill="#D3A6FF"/>
</svg>
